# xmcd
#
# Track frame offsets: 
#        150
#        25022
#        45530
#        59170
#        82117
#        104697
#        119787
#        141252
#        166330
#        189000
#        206955
#        225512
#        245412
#
# Disc length: 3419 seconds
#
# Revision: 3
# Processed by: cddbd v1.5PL3 Copyright (c) Steve Scherf et al.
# Submitted via: ExactAudioCopy v0.95a4
#
DISCID=bc0d590d
DTITLE=Sapho - Digital Sheikha
DYEAR=1997
DGENRE=World
TTITLE0=Sois plus radical
TTITLE1=Je t'avoue
TTITLE2=Laouah
TTITLE3=Sahia
TTITLE4=Petit Demon
TTITLE5=Va Habib
TTITLE6=Ce Spectacle
TTITLE7=Dabayji
TTITLE8=Endi ou Hida
TTITLE9=Shalini
TTITLE10=Titiha
TTITLE11=Amuenty
TTITLE12=Radio Bebe
EXTD=
EXTT0=
EXTT1=
EXTT2=
EXTT3=
EXTT4=
EXTT5=
EXTT6=
EXTT7=
EXTT8=
EXTT9=
EXTT10=
EXTT11=
EXTT12=
PLAYORDER=
